<?xml version="1.0" encoding="UTF-8"?>
<svg id="Lager_1" data-name="Lager 1" xmlns="http://www.w3.org/2000/svg" viewBox="0 0 525.85 72.1">
  <defs>
    <style>
      .cls-1 {
        fill: #fff;
        stroke-width: 0px;
      }
    </style>
  </defs>
  <polygon class="cls-1" points="66.2 29.2 8.3 29.2 8.3 -1 0 -1 0 71.1 8.3 71.1 8.3 36.6 66.2 36.6 66.2 71.1 74.5 71.1 74.5 -1 66.2 -1 66.2 29.2"/>
  <polygon class="cls-1" points="99.45 37 155.55 37 155.55 29.6 99.45 29.6 99.45 6.4 160.15 6.4 160.15 -1 91.05 -1 91.05 71.1 163.05 71.1 163.05 63.7 99.45 63.7 99.45 37"/>
  <path class="cls-1" d="M231.38,2.48c-6.53-3.21-12.53-3.48-19.13-3.48h-36.05v72.1h32.75c8.84,0,18.15-.45,26.41-5.82,9.3-6.09,14.64-17.04,14.64-30.03,0-14.83-6.96-27.08-18.62-32.78ZM241.12,39.61c-.08.9-.19,1.78-.33,2.64-1.01,6.18-3.54,11.13-7.54,14.75-7.5,6.71-17.75,6.71-26.8,6.71h-21.75V6.4h27.65c5.08,0,15.65,0,22.91,9.51,3.9,5.01,6.04,12.02,6.04,19.74,0,1.37-.07,2.68-.18,3.95Z"/>
  <rect class="cls-1" x="264.03" y="-1" width="8.2" height="72.1"/>
  <polygon class="cls-1" points="357.75 59.81 298.53 -.77 298.31 -1 290.95 -1 290.95 71.1 298.75 71.1 298.75 10.58 358.19 71.1 365.55 71.1 365.55 -1 357.75 -1 357.75 59.81"/>
  <polygon class="cls-1" points="455.31 -1 455.31 6.4 487.01 6.4 487.01 71.1 495.21 71.1 495.21 6.4 525.51 6.4 525.51 -1 455.31 -1"/>
  <rect class="cls-1" x="431.39" y="-1" width="8.2" height="72.1"/>
</svg>