<svg width="179" height="14" viewBox="0 0 179 14" fill="none" xmlns="http://www.w3.org/2000/svg">
<g clip-path="url(#clip0_451_15381)">
<path d="M12.2943 5.60857H1.54143V0H0V13.39H1.54143V6.98286H12.2943V13.39H13.8357V0H12.2943V5.60857Z" fill="#272C34"/>
<path d="M18.4693 7.05714H28.8879V5.68286H18.4693V1.37429H29.7421V0H16.9093V13.39H30.2807V12.0157H18.4693V7.05714Z" fill="#272C34"/>
<path d="M42.9706 0.646286C41.7579 0.0482857 40.6436 0 39.4179 0H32.7229V13.39H38.805C40.4467 13.39 42.1757 13.3064 43.7097 12.3091C45.4369 11.1781 46.4286 9.14457 46.4286 6.73214C46.4286 3.978 45.136 1.703 42.9706 0.644429V0.646286ZM44.7794 7.54186C44.7646 7.709 44.7441 7.87243 44.7181 8.03214C44.5306 9.17986 44.0607 10.0991 43.3179 10.7714C41.925 12.0176 40.0214 12.0176 38.3407 12.0176H34.3014V1.37429H39.4364C40.3799 1.37429 42.3429 1.37429 43.6911 3.14043C44.4154 4.07086 44.8129 5.37271 44.8129 6.80643C44.8129 7.06086 44.7999 7.30414 44.7794 7.54V7.54186Z" fill="#272C34"/>
<path d="M50.557 0H49.0341V13.39H50.557V0Z" fill="#272C34"/>
<path d="M66.4393 11.2933L55.4413 0.0427143L55.4004 0H54.0336V13.39H55.4821V2.15057L66.521 13.39H67.8879V0H66.4393V11.2933Z" fill="#272C34"/>
<path d="M130.527 0H129.005V13.39H130.527V0Z" fill="#272C34"/>
<path d="M104.303 0.646286C103.09 0.0482857 101.976 0 100.75 0H94.055V13.39H100.137C101.779 13.39 103.508 13.3064 105.042 12.3091C106.769 11.1781 107.761 9.14457 107.761 6.73214C107.761 3.978 106.468 1.703 104.303 0.644429V0.646286ZM106.112 7.54186C106.097 7.709 106.076 7.87243 106.05 8.03214C105.863 9.17986 105.393 10.0991 104.65 10.7714C103.257 12.0176 101.354 12.0176 99.6729 12.0176H95.6336V1.37429H100.769C101.712 1.37429 103.675 1.37429 105.023 3.14043C105.748 4.07086 106.145 5.37271 106.145 6.80643C106.145 7.06086 106.132 7.30414 106.112 7.54V7.54186Z" fill="#272C34"/>
<path d="M83.9744 0L77.3927 13.39H79.0029L80.6743 9.99143H88.9516L90.6416 13.39H92.3093L85.5586 0H83.9744ZM81.3131 8.67286L84.7674 1.62314L88.2923 8.67286H81.3113H81.3131Z" fill="#272C34"/>
<path d="M117.427 11.7947C117.297 11.4549 117.201 11.2171 116.965 10.7027L111.932 0H110.051V13.39H111.499V2.35114C111.531 2.418 111.566 2.49414 111.611 2.58514L116.656 13.39H118.135L123.13 2.53871C123.181 2.43286 123.221 2.34743 123.255 2.27314V13.39H124.703V0H122.841L117.425 11.7947H117.427Z" fill="#272C34"/>
<path d="M147.242 11.2933L136.244 0.0427143L136.203 0H134.834V13.39H136.283V2.15057L147.322 13.39H148.69V0H147.242V11.2933Z" fill="#272C34"/>
<path d="M170.822 7.53629C170.822 10.7194 169.334 11.96 165.52 11.96C163.445 11.96 162.028 11.5533 161.189 10.7176C160.505 10.036 160.186 9.06657 160.216 7.75172V0H158.73V7.86314C158.73 11.583 160.951 13.3919 165.518 13.3919C170.085 13.3919 172.287 11.5886 172.287 7.71829V0H170.82V7.53629H170.822Z" fill="#272C34"/>
<path d="M178.111 0H176.588V13.39H178.111V0Z" fill="#272C34"/>
</g>
<defs>
<clipPath id="clip0_451_15381">
<rect width="178.111" height="13.39" fill="white"/>
</clipPath>
</defs>
</svg>
