<?xml version="1.0" encoding="utf-8"?>
<svg xmlns="http://www.w3.org/2000/svg" fill="none" height="73" viewBox="0 0 526 73" width="526">
<g clip-path="url(#clip0_707_10)">
<path d="M66.2041 30.2021H8.30029V0H0V72.1045H8.30029V37.6025H66.2041V72.1045H74.5044V0H66.2041V30.2021Z" fill="black"/>
<path d="M99.4473 38.0024H155.551V30.6021H99.4473V7.40039H160.151V0H91.0469V72.1045H163.051V64.7041H99.4473V38.0024Z" fill="black"/>
<path d="M231.38 3.47656C224.849 0.261719 218.852 0 212.25 0H176.197V72.1045H208.949C217.785 72.1045 227.103 71.6548 235.362 66.2817C244.666 60.1895 250.002 49.2446 250.002 36.2524C250.002 21.4258 243.041 9.17334 231.38 3.47656ZM241.12 40.6061C241.038 41.5065 240.934 42.3893 240.795 43.2428C239.782 49.4238 237.257 54.3693 233.25 57.9951C225.751 64.7036 215.497 64.7041 206.449 64.7041H184.698V7.40039H212.35C217.431 7.40039 228.003 7.40039 235.259 16.9116C239.155 21.9214 241.301 28.9321 241.301 36.6523C241.301 38.0184 241.236 39.3327 241.12 40.6061Z" fill="black"/>
<path d="M272.228 0H264.028V72.1045H272.228V0Z" fill="black"/>
<path d="M357.75 60.8135L298.532 0.225586L298.312 0H290.946V72.1045H298.746V11.585L358.185 72.1045H365.55V0H357.75V60.8135Z" fill="black"/>
<path d="M455.311 7.40039H487.012V72.1045H495.213V7.40039H525.515V0H455.311V7.40039Z" fill="black"/>
<path d="M439.594 0H431.393V72.1045H439.594V0Z" fill="black"/>
</g>
<defs>
<clipPath id="clip0_707_10">
<rect fill="white" height="72.1045" width="525.847"/>
</clipPath>
</defs>
</svg>